<?xml version="1.0" standalone="no"?>
<!DOCTYPE svg PUBLIC "-//W3C//DTD SVG 20010904//EN"
 "http://www.w3.org/TR/2001/REC-SVG-20010904/DTD/svg10.dtd">
<svg version="1.0" xmlns="http://www.w3.org/2000/svg"
 width="548.000000pt" height="900.000000pt" viewBox="0 0 548.000000 900.000000"
 preserveAspectRatio="xMidYMid meet">
<metadata>
Created by potrace 1.15, written by Peter Selinger 2001-2017
</metadata>
<g transform="translate(0.000000,900.000000) scale(0.100000,-0.100000)"
fill="#000000" stroke="none">
<path d="M752 8984 c-365 -80 -596 -401 -692 -964 -56 -329 -71 -820 -32
-1095 122 -867 368 -1649 600 -1906 30 -33 62 -59 73 -59 10 0 115 25 232 56
116 31 379 98 582 149 l370 92 7 234 c6 237 17 354 44 483 20 96 26 116 101
303 35 90 75 205 88 256 62 244 55 525 -20 920 -138 715 -381 1197 -718 1426
-66 45 -181 96 -245 110 -72 15 -313 12 -390 -5z"/>
<path d="M4071 6069 c-29 -5 -92 -27 -138 -49 -413 -193 -705 -739 -854 -1595
-26 -148 -32 -217 -36 -385 -8 -293 14 -415 123 -681 113 -278 133 -387 141
-765 l6 -261 201 -48 c110 -26 379 -94 596 -151 456 -119 406 -119 498 2 199
262 414 923 531 1634 54 330 64 450 58 700 -24 869 -202 1344 -572 1526 -49
24 -117 51 -150 60 -71 19 -323 28 -404 13z"/>
<path d="M1805 4764 c-104 -35 -318 -102 -475 -149 -157 -47 -343 -104 -414
-126 l-128 -41 7 -66 c78 -777 374 -1287 801 -1377 199 -42 369 11 525 165 76
75 93 98 137 190 78 162 87 210 87 445 0 193 -1 204 -32 325 -54 208 -162 455
-275 631 l-43 66 -190 -63z"/>
<path d="M3146 1806 c-140 -235 -240 -489 -277 -707 -18 -102 -20 -150 -16
-269 6 -175 27 -265 93 -399 39 -78 62 -110 133 -181 125 -126 248 -180 411
-180 96 0 174 20 275 70 318 156 540 572 625 1170 11 74 20 153 20 176 0 38
-2 41 -37 53 -21 6 -243 74 -493 151 -250 76 -501 155 -557 174 -56 20 -106
36 -112 36 -5 0 -34 -42 -65 -94z"/>
</g>
</svg>
